<svg viewBox="0 0 24 24" xmlns="http://www.w3.org/2000/svg" fill="currentColor">
  <path d="M12 0C5.37 0 0 5.37 0 12c0 5.3 3.44 9.8 8.21 11.38.6.1.82-.26.82-.58v-2.17c-3.34.73-4.04-1.61-4.04-1.61-.55-1.38-1.35-1.75-1.35-1.75-1.1-.75.08-.74.08-.74 1.22.09 1.86 1.25 1.86 1.25 1.08 1.86 2.84 1.32 3.54 1.01.11-.78.42-1.32.76-1.63-2.67-.3-5.47-1.34-5.47-5.97 0-1.32.47-2.39 1.24-3.23-.12-.3-.54-1.52.12-3.17 0 0 1.01-.32 3.3 1.23a11.5 11.5 0 013.01-.41c1.02.01 2.05.14 3.01.41 2.28-1.55 3.29-1.23 3.29-1.23.66 1.65.24 2.87.12 3.17.77.84 1.23 1.91 1.23 3.23 0 4.64-2.8 5.67-5.47 5.97.43.37.81 1.1.81 2.22v3.29c0 .32.21.69.82.58C20.56 21.8 24 17.3 24 12c0-6.63-5.37-12-12-12z"/>
</svg>
