<?xml version="1.0" encoding="UTF-8"?>
<!DOCTYPE svg PUBLIC "-//W3C//DTD SVG 1.1//EN" "http://www.w3.org/Graphics/SVG/1.1/DTD/svg11.dtd">
<svg xmlns="http://www.w3.org/2000/svg" version="1.1" width="500px" height="499px" style="shape-rendering:geometricPrecision; text-rendering:geometricPrecision; image-rendering:optimizeQuality; fill-rule:evenodd; clip-rule:evenodd" xmlns:xlink="http://www.w3.org/1999/xlink">
<g><path style="opacity:0.773" fill="#776ea0" d="M 257.5,44.5 C 251.5,43.1667 245.5,43.1667 239.5,44.5C 239.918,43.7784 240.584,43.2784 241.5,43C 246.167,42.3333 250.833,42.3333 255.5,43C 256.416,43.2784 257.082,43.7784 257.5,44.5 Z"/></g>
<g><path style="opacity:0.788" fill="#776fa5" d="M 239.5,44.5 C 237.898,46.0739 235.898,46.7406 233.5,46.5C 235.102,44.9261 237.102,44.2594 239.5,44.5 Z"/></g>
<g><path style="opacity:1" fill="#352a8a" d="M 257.5,44.5 C 257.833,44.5 258.167,44.5 258.5,44.5C 260.927,46.5341 263.26,48.7008 265.5,51C 268.047,51.6595 270.547,51.4929 273,50.5C 277.827,53.1648 282.994,54.4982 288.5,54.5C 290.415,54.2155 292.081,54.5489 293.5,55.5C 295.102,57.0739 297.102,57.7406 299.5,57.5C 301.515,58.9238 303.848,59.5905 306.5,59.5C 308.102,61.0739 310.102,61.7406 312.5,61.5C 314.102,63.0739 316.102,63.7406 318.5,63.5C 320.898,63.2594 322.898,63.9261 324.5,65.5C 327.799,67.4835 331.466,68.4835 335.5,68.5C 338.486,68.9028 341.152,69.9028 343.5,71.5C 345.214,72.7384 347.214,73.405 349.5,73.5C 352.327,73.5838 354.994,74.2504 357.5,75.5C 358.78,76.9313 360.447,77.5979 362.5,77.5C 362.833,77.5 363.167,77.5 363.5,77.5C 364.78,78.9313 366.447,79.5979 368.5,79.5C 370.214,80.7384 372.214,81.405 374.5,81.5C 377.079,81.3939 379.412,82.0605 381.5,83.5C 383.214,84.7384 385.214,85.405 387.5,85.5C 389.214,86.7384 391.214,87.405 393.5,87.5C 395.214,88.7384 397.214,89.405 399.5,89.5C 402.505,91.2766 405.838,92.2766 409.5,92.5C 411.698,92.8751 413.698,93.5418 415.5,94.5C 416.469,95.3094 417.302,96.3094 418,97.5C 419.011,96.6634 420.178,96.33 421.5,96.5C 424.504,96.722 427.171,97.722 429.5,99.5C 429.427,101.027 430.094,102.027 431.5,102.5C 431.927,105.01 432.593,107.343 433.5,109.5C 433.667,171.501 433.5,233.501 433,295.5C 432.79,297.058 432.29,298.391 431.5,299.5C 430.343,302.273 429.676,305.273 429.5,308.5C 429.5,309.167 429.5,309.833 429.5,310.5C 428.069,311.78 427.402,313.447 427.5,315.5C 427.741,317.898 427.074,319.898 425.5,321.5C 424.326,322.514 423.66,323.847 423.5,325.5C 422.15,326.483 421.15,327.816 420.5,329.5C 419.575,328.359 418.741,328.359 418,329.5C 417.79,330.803 417.957,332.136 418.5,333.5C 417.246,335.334 416.579,337.334 416.5,339.5C 414.876,339.64 413.71,338.973 413,337.5C 412.502,340.482 412.335,343.482 412.5,346.5C 409.949,347.949 407.615,347.615 405.5,345.5C 408.167,344.5 408.167,343.5 405.5,342.5C 404.534,344.396 404.201,346.396 404.5,348.5C 405.833,348.5 407.167,348.5 408.5,348.5C 408.5,349.833 408.5,351.167 408.5,352.5C 408.672,353.492 408.338,354.158 407.5,354.5C 404.09,354.384 402.756,356.05 403.5,359.5C 398.04,360.626 395.04,363.959 394.5,369.5C 393.5,369.833 392.833,370.5 392.5,371.5C 391.094,371.973 390.427,372.973 390.5,374.5C 390.5,375.167 390.167,375.5 389.5,375.5C 388.732,374.737 388.232,373.737 388,372.5C 388.035,376.245 387.035,376.912 385,374.5C 383.731,375.905 383.231,377.571 383.5,379.5C 380.612,379.22 379.112,380.553 379,383.5C 378.667,383.167 378.333,382.833 378,382.5C 377.506,384.134 377.34,385.801 377.5,387.5C 375.858,388.803 374.191,390.136 372.5,391.5C 369.882,393.274 366.882,394.274 363.5,394.5C 362.833,396.833 362.167,399.167 361.5,401.5C 358.48,404.516 355.146,407.183 351.5,409.5C 348.451,410.357 345.451,410.357 342.5,409.5C 342.167,409.833 341.833,410.167 341.5,410.5C 343.756,411.421 344.756,413.088 344.5,415.5C 342.011,415.241 340.344,416.241 339.5,418.5C 339.167,419.5 338.5,420.167 337.5,420.5C 336.391,420.557 335.391,420.89 334.5,421.5C 331.5,421.833 329.833,423.5 329.5,426.5C 329.158,427.338 328.492,427.672 327.5,427.5C 325.801,427.34 324.134,427.506 322.5,428C 323.252,428.671 323.586,429.504 323.5,430.5C 321.973,430.427 320.973,431.094 320.5,432.5C 319.167,432.5 317.833,432.5 316.5,432.5C 316.5,433.5 316.5,434.5 316.5,435.5C 316.158,436.338 315.492,436.672 314.5,436.5C 312.973,436.427 311.973,437.094 311.5,438.5C 311.158,439.338 310.492,439.672 309.5,439.5C 307.738,439.643 306.071,439.309 304.5,438.5C 303.548,440.045 303.215,441.712 303.5,443.5C 301.167,443.5 298.833,443.5 296.5,443.5C 296.5,444.5 296.5,445.5 296.5,446.5C 295.448,446.351 294.448,446.517 293.5,447C 294.598,447.77 294.598,448.603 293.5,449.5C 291.973,449.427 290.973,450.094 290.5,451.5C 286.783,454.025 282.783,456.025 278.5,457.5C 276.973,457.427 275.973,458.094 275.5,459.5C 274.18,460.942 272.514,461.608 270.5,461.5C 264.463,462.247 259.797,463.247 256.5,464.5C 256.567,465.959 256.234,467.292 255.5,468.5C 251.167,469.833 246.833,469.833 242.5,468.5C 241.71,467.206 240.71,466.039 239.5,465C 235.921,463.699 232.588,462.033 229.5,460C 226.937,458.921 224.271,458.421 221.5,458.5C 219.181,458.008 217.181,457.008 215.5,455.5C 215.027,454.094 214.027,453.427 212.5,453.5C 211.402,452.603 211.402,451.77 212.5,451C 210.134,450.56 207.801,450.06 205.5,449.5C 205.027,448.094 204.027,447.427 202.5,447.5C 200.847,447.34 199.514,446.674 198.5,445.5C 198.027,444.094 197.027,443.427 195.5,443.5C 195.027,442.094 194.027,441.427 192.5,441.5C 188.995,435.915 183.995,432.581 177.5,431.5C 175.596,431.262 174.262,430.262 173.5,428.5C 173.027,427.094 172.027,426.427 170.5,426.5C 170.027,425.094 169.027,424.427 167.5,424.5C 165.539,423.54 163.873,422.207 162.5,420.5C 162.027,419.094 161.027,418.427 159.5,418.5C 158.738,416.738 157.404,415.738 155.5,415.5C 154.833,415.5 154.5,415.167 154.5,414.5C 154.027,413.094 153.027,412.427 151.5,412.5C 149.539,411.54 147.873,410.207 146.5,408.5C 145.415,406.413 143.749,405.08 141.5,404.5C 139.539,403.54 137.873,402.207 136.5,400.5C 136.167,399.5 135.5,398.833 134.5,398.5C 133.415,396.413 131.749,395.08 129.5,394.5C 126.474,391.805 123.474,389.138 120.5,386.5C 119.69,384.202 118.856,381.868 118,379.5C 115.55,378.358 113.05,377.358 110.5,376.5C 108.833,375.5 107.5,374.167 106.5,372.5C 104.382,369.573 103.382,366.24 103.5,362.5C 98.3782,361.71 95.7115,358.71 95.5,353.5C 93.4352,353.483 91.4352,353.15 89.5,352.5C 89.1667,351.833 88.8333,351.167 88.5,350.5C 88.573,348.973 87.9063,347.973 86.5,347.5C 85.1103,346.101 84.1103,344.434 83.5,342.5C 83.4456,340.368 82.4456,339.035 80.5,338.5C 77.6132,333.395 75.2798,328.061 73.5,322.5C 73.3404,320.847 72.6737,319.514 71.5,318.5C 71.5,318.167 71.5,317.833 71.5,317.5C 71.5979,315.447 70.9313,313.78 69.5,312.5C 69.5,312.167 69.5,311.833 69.5,311.5C 69.405,309.214 68.7384,307.214 67.5,305.5C 67.5,305.167 67.5,304.833 67.5,304.5C 67.7062,301.505 67.0395,298.838 65.5,296.5C 64.1768,232.451 64.1768,168.451 65.5,104.5C 66.9063,104.027 67.573,103.027 67.5,101.5C 69.3145,98.5926 71.9812,97.2593 75.5,97.5C 77.7857,97.405 79.7857,96.7384 81.5,95.5C 83.8984,95.7406 85.8984,95.0739 87.5,93.5C 90.9924,93.554 93.9924,92.554 96.5,90.5C 99.9164,90.4725 102.916,89.4725 105.5,87.5C 105.833,87.5 106.167,87.5 106.5,87.5C 109.716,87.6545 112.383,86.6545 114.5,84.5C 115.568,83.5655 116.901,83.2322 118.5,83.5C 122.475,83.5141 125.808,82.1807 128.5,79.5C 133.463,78.0094 138.463,76.676 143.5,75.5C 145.898,75.7406 147.898,75.0739 149.5,73.5C 158.18,71.6056 166.513,68.9389 174.5,65.5C 178.915,65.1394 182.915,63.8061 186.5,61.5C 190.222,60.9834 193.888,60.15 197.5,59C 198.056,58.6174 198.389,58.1174 198.5,57.5C 201.01,57.9465 203.01,57.2798 204.5,55.5C 205.919,54.5489 207.585,54.2155 209.5,54.5C 211.153,54.3404 212.486,53.6737 213.5,52.5C 214.167,52.5 214.833,52.5 215.5,52.5C 217.939,51.9475 220.273,51.9475 222.5,52.5C 223.696,52.1543 223.696,51.6543 222.5,51C 224.491,50.6264 226.158,49.793 227.5,48.5C 229.898,48.7406 231.898,48.0739 233.5,46.5C 235.898,46.7406 237.898,46.0739 239.5,44.5C 245.5,43.1667 251.5,43.1667 257.5,44.5 Z"/></g>
<g><path style="opacity:0.776" fill="#7e76a9" d="M 233.5,46.5 C 231.898,48.0739 229.898,48.7406 227.5,48.5C 229.102,46.9261 231.102,46.2594 233.5,46.5 Z"/></g>
<g><path style="opacity:1" fill="#564993" d="M 258.5,44.5 C 268.884,46.9655 278.884,50.2988 288.5,54.5C 282.994,54.4982 277.827,53.1648 273,50.5C 270.547,51.4929 268.047,51.6595 265.5,51C 263.26,48.7008 260.927,46.5341 258.5,44.5 Z"/></g>
<g><path style="opacity:1" fill="#5b5195" d="M 227.5,48.5 C 226.158,49.793 224.491,50.6264 222.5,51C 223.696,51.6543 223.696,52.1543 222.5,52.5C 220.273,51.9475 217.939,51.9475 215.5,52.5C 219.213,50.5652 223.213,49.2319 227.5,48.5 Z"/></g>
<g><path style="opacity:0.584" fill="#a49ec5" d="M 213.5,52.5 C 212.486,53.6737 211.153,54.3404 209.5,54.5C 210.287,52.8958 211.62,52.2291 213.5,52.5 Z"/></g>
<g><path style="opacity:0.878" fill="#8d85b4" d="M 204.5,55.5 C 203.01,57.2798 201.01,57.9465 198.5,57.5C 200.302,56.5418 202.302,55.8751 204.5,55.5 Z"/></g>
<g><path style="opacity:0.396" fill="#a6a0c6" d="M 293.5,55.5 C 295.786,55.595 297.786,56.2616 299.5,57.5C 297.102,57.7406 295.102,57.0739 293.5,55.5 Z"/></g>
<g><path style="opacity:0.01" fill="#d5d2e7" d="M 299.5,57.5 C 302.152,57.4095 304.485,58.0762 306.5,59.5C 303.848,59.5905 301.515,58.9238 299.5,57.5 Z"/></g>
<g><path style="opacity:0.91" fill="#8d84b6" d="M 198.5,57.5 C 198.389,58.1174 198.056,58.6174 197.5,59C 193.888,60.15 190.222,60.9834 186.5,61.5C 190.216,59.5947 194.216,58.2613 198.5,57.5 Z"/></g>
<g><path style="opacity:0.376" fill="#b0adce" d="M 306.5,59.5 C 308.786,59.595 310.786,60.2616 312.5,61.5C 310.102,61.7406 308.102,61.0739 306.5,59.5 Z"/></g>
<g><path style="opacity:0.749" fill="#8c85b4" d="M 186.5,61.5 C 182.915,63.8061 178.915,65.1394 174.5,65.5C 178.213,63.5652 182.213,62.2319 186.5,61.5 Z"/></g>
<g><path style="opacity:0.063" fill="#c3c1d8" d="M 312.5,61.5 C 314.898,61.2594 316.898,61.9261 318.5,63.5C 316.102,63.7406 314.102,63.0739 312.5,61.5 Z"/></g>
<g><path style="opacity:0.02" fill="#c1bedc" d="M 324.5,65.5 C 328.427,65.9257 332.093,66.9257 335.5,68.5C 331.466,68.4835 327.799,67.4835 324.5,65.5 Z"/></g>
<g><path style="opacity:0.667" fill="#9088b7" d="M 174.5,65.5 C 166.513,68.9389 158.18,71.6056 149.5,73.5C 157.487,70.0611 165.82,67.3944 174.5,65.5 Z"/></g>
<g><path style="opacity:0.027" fill="#c1bddb" d="M 343.5,71.5 C 345.898,71.2594 347.898,71.9261 349.5,73.5C 347.214,73.405 345.214,72.7384 343.5,71.5 Z"/></g>
<g><path style="opacity:0.835" fill="#837aac" d="M 149.5,73.5 C 147.898,75.0739 145.898,75.7406 143.5,75.5C 145.102,73.9261 147.102,73.2594 149.5,73.5 Z"/></g>
<g><path style="opacity:0.271" fill="#c1bddf" d="M 357.5,75.5 C 359.553,75.4021 361.22,76.0687 362.5,77.5C 360.447,77.5979 358.78,76.9313 357.5,75.5 Z"/></g>
<g><path style="opacity:0.31" fill="#b9b4d8" d="M 363.5,77.5 C 365.553,77.4021 367.22,78.0687 368.5,79.5C 366.447,79.5979 364.78,78.9313 363.5,77.5 Z"/></g>
<g><path style="opacity:0.043" fill="#b9b3da" d="M 368.5,79.5 C 370.898,79.2594 372.898,79.9261 374.5,81.5C 372.214,81.405 370.214,80.7384 368.5,79.5 Z"/></g>
<g><path style="opacity:0.745" fill="#9a92c1" d="M 128.5,79.5 C 125.808,82.1807 122.475,83.5141 118.5,83.5C 121.625,81.8737 124.958,80.5403 128.5,79.5 Z"/></g>
<g><path style="opacity:0.008" fill="#cec9e8" d="M 381.5,83.5 C 383.898,83.2594 385.898,83.9261 387.5,85.5C 385.214,85.405 383.214,84.7384 381.5,83.5 Z"/></g>
<g><path style="opacity:0.216" fill="#bab7d6" d="M 387.5,85.5 C 389.898,85.2594 391.898,85.9261 393.5,87.5C 391.214,87.405 389.214,86.7384 387.5,85.5 Z"/></g>
<g><path style="opacity:0.906" fill="#72699f" d="M 114.5,84.5 C 112.383,86.6545 109.716,87.6545 106.5,87.5C 108.848,85.9028 111.514,84.9028 114.5,84.5 Z"/></g>
<g><path style="opacity:0.02" fill="#c2bed9" d="M 393.5,87.5 C 395.898,87.2594 397.898,87.9261 399.5,89.5C 397.214,89.405 395.214,88.7384 393.5,87.5 Z"/></g>
<g><path style="opacity:0.737" fill="#8d84b5" d="M 105.5,87.5 C 102.916,89.4725 99.9164,90.4725 96.5,90.5C 99.2154,88.9281 102.215,87.9281 105.5,87.5 Z"/></g>
<g><path style="opacity:0.035" fill="#bdb2da" d="M 399.5,89.5 C 403.162,89.7234 406.495,90.7234 409.5,92.5C 405.838,92.2766 402.505,91.2766 399.5,89.5 Z"/></g>
<g><path style="opacity:0.796" fill="#7e76aa" d="M 96.5,90.5 C 93.9924,92.554 90.9924,93.554 87.5,93.5C 90.1461,91.7475 93.1461,90.7475 96.5,90.5 Z"/></g>
<g><path style="opacity:0.812" fill="#7d76aa" d="M 87.5,93.5 C 85.8984,95.0739 83.8984,95.7406 81.5,95.5C 83.1016,93.9261 85.1016,93.2594 87.5,93.5 Z"/></g>
<g><path style="opacity:0.337" fill="#a49ec8" d="M 81.5,95.5 C 79.7857,96.7384 77.7857,97.405 75.5,97.5C 77.1016,95.9261 79.1016,95.2594 81.5,95.5 Z"/></g>
<g><path style="opacity:1" fill="#7c71b0" d="M 415.5,94.5 C 417.786,94.595 419.786,95.2616 421.5,96.5C 420.178,96.33 419.011,96.6634 418,97.5C 417.302,96.3094 416.469,95.3094 415.5,94.5 Z"/></g>
<g><path style="opacity:0.369" fill="#b9b3d4" d="M 429.5,99.5 C 430.906,99.9731 431.573,100.973 431.5,102.5C 430.094,102.027 429.427,101.027 429.5,99.5 Z"/></g>
<g><path style="opacity:0.243" fill="#b9b6d8" d="M 67.5,101.5 C 67.573,103.027 66.9063,104.027 65.5,104.5C 65.427,102.973 66.0937,101.973 67.5,101.5 Z"/></g>
<g><path style="opacity:0.475" fill="#9f9ac5" d="M 431.5,102.5 C 432.117,102.611 432.617,102.944 433,103.5C 433.495,105.473 433.662,107.473 433.5,109.5C 432.593,107.343 431.927,105.01 431.5,102.5 Z"/></g>
<g><path style="opacity:1" fill="#72b1e5" d="M 319.5,234.5 C 298.214,247.816 277.214,261.649 256.5,276C 251.468,279.232 246.468,279.232 241.5,276C 234.632,271.738 227.965,267.238 221.5,262.5C 193.033,243.428 164.366,224.595 135.5,206C 128.847,199.958 128.847,193.958 135.5,188C 171.662,163.752 207.995,139.752 244.5,116C 249.439,115.531 254.106,116.531 258.5,119C 294.606,142.775 330.44,166.942 366,191.5C 368.891,197.897 367.391,203.064 361.5,207C 347.054,215.636 333.054,224.803 319.5,234.5 Z"/></g>
<g><path style="opacity:1" fill="#72b0e6" d="M 211.5,271.5 C 219.924,277.89 228.591,284.057 237.5,290C 244.816,294.576 252.149,294.576 259.5,290C 289.5,269.321 320,249.488 351,230.5C 354.173,231.187 357.006,232.521 359.5,234.5C 368.38,239.819 369.714,246.652 363.5,255C 327.158,278.169 291.158,301.836 255.5,326C 251.572,327.325 247.572,327.658 243.5,327C 206.924,302.128 170.091,277.628 133,253.5C 131.068,248.806 131.068,244.139 133,239.5C 137.156,235.425 141.822,232.091 147,229.5C 168.625,243.39 190.125,257.39 211.5,271.5 Z"/></g>
<g><path style="opacity:1" fill="#322c8a" d="M 359.5,234.5 C 357.006,232.521 354.173,231.187 351,230.5C 320,249.488 289.5,269.321 259.5,290C 252.149,294.576 244.816,294.576 237.5,290C 228.591,284.057 219.924,277.89 211.5,271.5C 214.311,271.174 216.978,270.341 219.5,269C 218.289,268.107 218.289,267.274 219.5,266.5C 220.672,266.919 221.672,267.585 222.5,268.5C 221.469,269.7 220.635,271.034 220,272.5C 219.667,272.167 219.333,271.833 219,271.5C 217.887,272.76 217.72,273.927 218.5,275C 220.167,275.333 221.833,275.667 223.5,276C 226.459,281.357 230.126,281.857 234.5,277.5C 235.736,278.246 237.07,278.579 238.5,278.5C 238.719,277.325 238.386,276.325 237.5,275.5C 233.167,272.667 228.833,269.833 224.5,267C 222.859,265.871 221.859,264.371 221.5,262.5C 227.965,267.238 234.632,271.738 241.5,276C 246.468,279.232 251.468,279.232 256.5,276C 277.214,261.649 298.214,247.816 319.5,234.5C 319.703,236.39 319.037,237.89 317.5,239C 318.973,239.71 319.64,240.876 319.5,242.5C 318.022,242.238 316.689,242.571 315.5,243.5C 317.452,244.103 319.452,243.77 321.5,242.5C 322.968,244.333 324.635,244.666 326.5,243.5C 326.291,242.914 325.957,242.414 325.5,242C 327.5,241.167 329.5,240.333 331.5,239.5C 330.716,237.971 329.716,236.304 328.5,234.5C 330.993,233.747 332.826,234.747 334,237.5C 339.135,234.353 344.301,231.353 349.5,228.5C 353.089,229.06 356.422,230.227 359.5,232C 360.598,232.77 360.598,233.603 359.5,234.5 Z"/></g>
<g><path style="opacity:0.149" fill="#beb9da" d="M 65.5,296.5 C 67.0395,298.838 67.7062,301.505 67.5,304.5C 66.2318,302.095 65.5651,299.428 65.5,296.5 Z"/></g>
<g><path style="opacity:0.188" fill="#948dc6" d="M 431.5,299.5 C 431.785,302.829 431.118,305.829 429.5,308.5C 429.676,305.273 430.343,302.273 431.5,299.5 Z"/></g>
<g><path style="opacity:0.004" fill="#cecbe3" d="M 67.5,305.5 C 68.7384,307.214 69.405,309.214 69.5,311.5C 67.9261,309.898 67.2594,307.898 67.5,305.5 Z"/></g>
<g><path style="opacity:0.251" fill="#ada9d2" d="M 429.5,310.5 C 429.598,312.553 428.931,314.22 427.5,315.5C 427.402,313.447 428.069,311.78 429.5,310.5 Z"/></g>
<g><path style="opacity:0.306" fill="#a39fc7" d="M 69.5,312.5 C 70.9313,313.78 71.5979,315.447 71.5,317.5C 70.0687,316.22 69.4021,314.553 69.5,312.5 Z"/></g>
<g><path style="opacity:0.086" fill="#b6b1d8" d="M 71.5,318.5 C 72.6737,319.514 73.3404,320.847 73.5,322.5C 71.8958,321.713 71.2291,320.38 71.5,318.5 Z"/></g>
<g><path style="opacity:0.157" fill="#b3afce" d="M 425.5,321.5 C 425.771,323.38 425.104,324.713 423.5,325.5C 423.66,323.847 424.326,322.514 425.5,321.5 Z"/></g>
<g><path style="opacity:1" fill="#72b0e5" d="M 349.5,279.5 C 355.021,281.845 360.188,284.845 365,288.5C 368.627,294.428 368.127,299.928 363.5,305C 327.663,327.751 291.997,350.751 256.5,374C 251.473,375.939 246.473,375.939 241.5,374C 205.248,350.291 169.081,326.458 133,302.5C 130.153,296.067 131.319,290.567 136.5,286C 139.167,284.333 141.833,282.667 144.5,281C 146.167,280.333 147.833,280.333 149.5,281C 180.671,301.085 211.671,321.418 242.5,342C 248.03,342.914 253.363,342.247 258.5,340C 288.899,319.81 319.232,299.643 349.5,279.5 Z"/></g>
<g><path style="opacity:0.047" fill="#bbb8db" d="M 421.5,331.5 C 421.573,333.027 420.906,334.027 419.5,334.5C 419.427,332.973 420.094,331.973 421.5,331.5 Z"/></g>
<g><path style="opacity:0.631" fill="#a39dc0" d="M 80.5,338.5 C 82.4456,339.035 83.4456,340.368 83.5,342.5C 82.0256,341.564 81.0256,340.23 80.5,338.5 Z"/></g>
<g><path style="opacity:1" fill="#574a93" d="M 423.5,325.5 C 423.396,327.703 422.73,329.703 421.5,331.5C 420.094,331.973 419.427,332.973 419.5,334.5C 418,338.997 415.667,342.997 412.5,346.5C 412.335,343.482 412.502,340.482 413,337.5C 413.71,338.973 414.876,339.64 416.5,339.5C 416.579,337.334 417.246,335.334 418.5,333.5C 417.957,332.136 417.79,330.803 418,329.5C 418.741,328.359 419.575,328.359 420.5,329.5C 421.15,327.816 422.15,326.483 423.5,325.5 Z"/></g>
<g><path style="opacity:1" fill="#564695" d="M 412.5,346.5 C 411.66,348.853 410.326,350.853 408.5,352.5C 408.5,351.167 408.5,349.833 408.5,348.5C 407.167,348.5 405.833,348.5 404.5,348.5C 404.201,346.396 404.534,344.396 405.5,342.5C 408.167,343.5 408.167,344.5 405.5,345.5C 407.615,347.615 409.949,347.949 412.5,346.5 Z"/></g>
<g><path style="opacity:0.027" fill="#cbc8e6" d="M 86.5,347.5 C 87.9063,347.973 88.573,348.973 88.5,350.5C 87.0937,350.027 86.427,349.027 86.5,347.5 Z"/></g>
<g><path style="opacity:0.824" fill="#7e74a5" d="M 407.5,354.5 C 406.516,356.48 405.183,358.147 403.5,359.5C 402.756,356.05 404.09,354.384 407.5,354.5 Z"/></g>
<g><path style="opacity:0.004" fill="#d8d4e8" d="M 94.5,358.5 C 95.9063,358.973 96.573,359.973 96.5,361.5C 95.0937,361.027 94.427,360.027 94.5,358.5 Z"/></g>
<g><path style="opacity:0.788" fill="#514789" d="M 403.5,359.5 C 402.833,360.833 401.833,361.833 400.5,362.5C 399.094,362.973 398.427,363.973 398.5,365.5C 397.5,367.167 396.167,368.5 394.5,369.5C 395.04,363.959 398.04,360.626 403.5,359.5 Z"/></g>
<g><path style="opacity:1" fill="#4e418d" d="M 89.5,352.5 C 91.4352,353.15 93.4352,353.483 95.5,353.5C 95.7115,358.71 98.3782,361.71 103.5,362.5C 103.382,366.24 104.382,369.573 106.5,372.5C 102.475,369.442 99.1421,365.775 96.5,361.5C 96.573,359.973 95.9063,358.973 94.5,358.5C 92.8437,356.54 91.177,354.54 89.5,352.5 Z"/></g>
<g><path style="opacity:0.004" fill="#d3d0e1" d="M 400.5,362.5 C 400.573,364.027 399.906,365.027 398.5,365.5C 398.427,363.973 399.094,362.973 400.5,362.5 Z"/></g>
<g><path style="opacity:0.008" fill="#d2d0e3" d="M 394.5,369.5 C 394.5,370.833 393.833,371.5 392.5,371.5C 392.833,370.5 393.5,369.833 394.5,369.5 Z"/></g>
<g><path style="opacity:0.008" fill="#d0cce1" d="M 392.5,371.5 C 392.573,373.027 391.906,374.027 390.5,374.5C 390.427,372.973 391.094,371.973 392.5,371.5 Z"/></g>
<g><path style="opacity:1" fill="#4e428b" d="M 110.5,376.5 C 113.05,377.358 115.55,378.358 118,379.5C 118.856,381.868 119.69,384.202 120.5,386.5C 116.833,383.5 113.5,380.167 110.5,376.5 Z"/></g>
<g><path style="opacity:1" fill="#64539d" d="M 389.5,375.5 C 385.833,379.833 381.833,383.833 377.5,387.5C 377.34,385.801 377.506,384.134 378,382.5C 378.333,382.833 378.667,383.167 379,383.5C 379.112,380.553 380.612,379.22 383.5,379.5C 383.231,377.571 383.731,375.905 385,374.5C 387.035,376.912 388.035,376.245 388,372.5C 388.232,373.737 388.732,374.737 389.5,375.5 Z"/></g>
<g><path style="opacity:0.671" fill="#8a81b3" d="M 129.5,394.5 C 131.749,395.08 133.415,396.413 134.5,398.5C 132.251,397.92 130.585,396.587 129.5,394.5 Z"/></g>
<g><path style="opacity:1" fill="#635796" d="M 372.5,391.5 C 369.457,395.544 365.791,398.877 361.5,401.5C 362.167,399.167 362.833,396.833 363.5,394.5C 366.882,394.274 369.882,393.274 372.5,391.5 Z"/></g>
<g><path style="opacity:0.004" fill="#d2d1e3" d="M 134.5,398.5 C 135.5,398.833 136.167,399.5 136.5,400.5C 135.167,400.5 134.5,399.833 134.5,398.5 Z"/></g>
<g><path style="opacity:0.345" fill="#a69fc2" d="M 141.5,404.5 C 143.749,405.08 145.415,406.413 146.5,408.5C 144.251,407.92 142.585,406.587 141.5,404.5 Z"/></g>
<g><path style="opacity:1" fill="#5b4c96" d="M 351.5,409.5 C 349.393,411.727 347.06,413.727 344.5,415.5C 344.756,413.088 343.756,411.421 341.5,410.5C 341.833,410.167 342.167,409.833 342.5,409.5C 345.451,410.357 348.451,410.357 351.5,409.5 Z"/></g>
<g><path style="opacity:0.533" fill="#8e87ba" d="M 151.5,412.5 C 153.027,412.427 154.027,413.094 154.5,414.5C 152.973,414.573 151.973,413.906 151.5,412.5 Z"/></g>
<g><path style="opacity:0.557" fill="#9893be" d="M 155.5,415.5 C 157.404,415.738 158.738,416.738 159.5,418.5C 157.596,418.262 156.262,417.262 155.5,415.5 Z"/></g>
<g><path style="opacity:0.757" fill="#877db0" d="M 344.5,415.5 C 343.101,416.89 341.434,417.89 339.5,418.5C 340.344,416.241 342.011,415.241 344.5,415.5 Z"/></g>
<g><path style="opacity:0.341" fill="#9189b9" d="M 159.5,418.5 C 161.027,418.427 162.027,419.094 162.5,420.5C 160.973,420.573 159.973,419.906 159.5,418.5 Z"/></g>
<g><path style="opacity:0.965" fill="#6b5e9a" d="M 334.5,421.5 C 334.5,421.833 334.5,422.167 334.5,422.5C 333.055,424.063 331.389,425.396 329.5,426.5C 329.833,423.5 331.5,421.833 334.5,421.5 Z"/></g>
<g><path style="opacity:0.004" fill="#d8d5ea" d="M 337.5,420.5 C 337.027,421.906 336.027,422.573 334.5,422.5C 334.5,422.167 334.5,421.833 334.5,421.5C 335.391,420.89 336.391,420.557 337.5,420.5 Z"/></g>
<g><path style="opacity:0.235" fill="#b4afcd" d="M 167.5,424.5 C 169.027,424.427 170.027,425.094 170.5,426.5C 168.973,426.573 167.973,425.906 167.5,424.5 Z"/></g>
<g><path style="opacity:0.341" fill="#998cbd" d="M 170.5,426.5 C 172.027,426.427 173.027,427.094 173.5,428.5C 171.973,428.573 170.973,427.906 170.5,426.5 Z"/></g>
<g><path style="opacity:0.988" fill="#7469a6" d="M 327.5,427.5 C 326.564,428.974 325.23,429.974 323.5,430.5C 323.586,429.504 323.252,428.671 322.5,428C 324.134,427.506 325.801,427.34 327.5,427.5 Z"/></g>
<g><path style="opacity:0.004" fill="#dad9ec" d="M 323.5,430.5 C 323.027,431.906 322.027,432.573 320.5,432.5C 320.973,431.094 321.973,430.427 323.5,430.5 Z"/></g>
<g><path style="opacity:0.916" fill="#8a7bb3" d="M 320.5,432.5 C 319.564,433.974 318.23,434.974 316.5,435.5C 316.5,434.5 316.5,433.5 316.5,432.5C 317.833,432.5 319.167,432.5 320.5,432.5 Z"/></g>
<g><path style="opacity:1" fill="#574b92" d="M 177.5,431.5 C 183.995,432.581 188.995,435.915 192.5,441.5C 190.566,440.89 188.899,439.89 187.5,438.5C 186.738,436.738 185.404,435.738 183.5,435.5C 180.802,435.155 178.802,433.822 177.5,431.5 Z"/></g>
<g><path style="opacity:0.42" fill="#9992c0" d="M 183.5,435.5 C 185.404,435.738 186.738,436.738 187.5,438.5C 185.596,438.262 184.262,437.262 183.5,435.5 Z"/></g>
<g><path style="opacity:0.004" fill="#ddd6ed" d="M 314.5,436.5 C 314.027,437.906 313.027,438.573 311.5,438.5C 311.973,437.094 312.973,436.427 314.5,436.5 Z"/></g>
<g><path style="opacity:1" fill="#685c9f" d="M 309.5,439.5 C 307.853,441.326 305.853,442.66 303.5,443.5C 303.215,441.712 303.548,440.045 304.5,438.5C 306.071,439.309 307.738,439.643 309.5,439.5 Z"/></g>
<g><path style="opacity:0.298" fill="#a59dc2" d="M 192.5,441.5 C 194.027,441.427 195.027,442.094 195.5,443.5C 193.973,443.573 192.973,442.906 192.5,441.5 Z"/></g>
<g><path style="opacity:1" fill="#675a9a" d="M 303.5,443.5 C 300.506,446 297.173,448 293.5,449.5C 294.598,448.603 294.598,447.77 293.5,447C 294.448,446.517 295.448,446.351 296.5,446.5C 296.5,445.5 296.5,444.5 296.5,443.5C 298.833,443.5 301.167,443.5 303.5,443.5 Z"/></g>
<g><path style="opacity:0.157" fill="#b7b2da" d="M 195.5,443.5 C 197.027,443.427 198.027,444.094 198.5,445.5C 196.973,445.573 195.973,444.906 195.5,443.5 Z"/></g>
<g><path style="opacity:0.38" fill="#8b85b3" d="M 202.5,447.5 C 204.027,447.427 205.027,448.094 205.5,449.5C 203.973,449.573 202.973,448.906 202.5,447.5 Z"/></g>
<g><path style="opacity:1" fill="#7467a8" d="M 205.5,449.5 C 207.801,450.06 210.134,450.56 212.5,451C 211.402,451.77 211.402,452.603 212.5,453.5C 209.669,452.921 207.336,451.588 205.5,449.5 Z"/></g>
<g><path style="opacity:0.004" fill="#d9d7f4" d="M 293.5,449.5 C 293.027,450.906 292.027,451.573 290.5,451.5C 290.973,450.094 291.973,449.427 293.5,449.5 Z"/></g>
<g><path style="opacity:0.18" fill="#bab4db" d="M 212.5,453.5 C 214.027,453.427 215.027,454.094 215.5,455.5C 213.973,455.573 212.973,454.906 212.5,453.5 Z"/></g>
<g><path style="opacity:0.004" fill="#d9d8e7" d="M 278.5,457.5 C 278.027,458.906 277.027,459.573 275.5,459.5C 275.973,458.094 276.973,457.427 278.5,457.5 Z"/></g>
<g><path style="opacity:0.953" fill="#5f5495" d="M 221.5,458.5 C 224.271,458.421 226.937,458.921 229.5,460C 232.588,462.033 235.921,463.699 239.5,465C 240.71,466.039 241.71,467.206 242.5,468.5C 235.067,465.949 228.067,462.615 221.5,458.5 Z"/></g>
<g><path style="opacity:1" fill="#6c60a4" d="M 270.5,461.5 C 265.868,464.389 260.868,466.722 255.5,468.5C 256.234,467.292 256.567,465.959 256.5,464.5C 259.797,463.247 264.463,462.247 270.5,461.5 Z"/></g>
</svg>
