<?xml version="1.0" encoding="UTF-8"?>
<!DOCTYPE svg PUBLIC "-//W3C//DTD SVG 1.1//EN" "http://www.w3.org/Graphics/SVG/1.1/DTD/svg11.dtd">
<svg xmlns="http://www.w3.org/2000/svg" version="1.1" width="756px" height="756px" style="shape-rendering:geometricPrecision; text-rendering:geometricPrecision; image-rendering:optimizeQuality; fill-rule:evenodd; clip-rule:evenodd" xmlns:xlink="http://www.w3.org/1999/xlink">
<g><path style="opacity:1" fill="#31207f" d="M -0.5,-0.5 C 251.5,-0.5 503.5,-0.5 755.5,-0.5C 755.5,251.5 755.5,503.5 755.5,755.5C 503.5,755.5 251.5,755.5 -0.5,755.5C -0.5,503.5 -0.5,251.5 -0.5,-0.5 Z"/></g>
<g><path style="opacity:1" fill="#64a2e3" d="M 374.5,67.5 C 378.56,67.4847 382.56,67.9847 386.5,69C 472.307,98.2842 558.307,126.951 644.5,155C 649.576,159.318 652.409,164.818 653,171.5C 653.667,258.5 653.667,345.5 653,432.5C 648.815,466.398 637.148,497.398 618,525.5C 593.139,558.361 564.306,587.194 531.5,612C 487.173,646.921 439.173,676.254 387.5,700C 381.47,703.246 375.47,703.246 369.5,700C 300.738,668.971 238.738,627.971 183.5,577C 161.646,556.496 142.813,533.663 127,508.5C 114.185,485.387 106.185,460.721 103,434.5C 102.333,345.167 102.333,255.833 103,166.5C 105.058,161.11 108.558,156.943 113.5,154C 200.797,125.623 287.797,96.7896 374.5,67.5 Z"/></g>
<g><path style="opacity:1" fill="#321f7e" d="M 626.5,175.5 C 627.833,216.495 628.5,257.828 628.5,299.5C 628.484,342.848 628.151,386.182 627.5,429.5C 626.832,345.098 626.165,260.598 625.5,176C 625.728,175.601 626.062,175.435 626.5,175.5 Z"/></g>
<g><path style="opacity:1" fill="#31207f" d="M 626.5,175.5 C 626.062,175.435 625.728,175.601 625.5,176C 626.165,260.598 626.832,345.098 627.5,429.5C 625.599,454.435 618.432,477.769 606,499.5C 591.174,523.01 573.34,544.177 552.5,563C 500.645,607.616 443.979,645.282 382.5,676C 379.833,676.667 377.167,676.667 374.5,676C 310.04,645.118 251.373,605.785 198.5,558C 172.098,534.27 151.931,506.103 138,473.5C 133.019,459.89 129.685,445.89 128,431.5C 127.168,345.93 127.335,260.43 128.5,175C 211.883,147.372 295.216,119.872 378.5,92.5C 461.222,120.185 543.888,147.852 626.5,175.5 Z"/></g>
<g><path style="opacity:1" fill="#65a2e3" d="M 223.5,424.5 C 226.016,424.755 228.35,425.589 230.5,427C 277.021,458.425 324.021,489.092 371.5,519C 375.833,519.667 380.167,519.667 384.5,519C 433.507,488.165 482.173,456.832 530.5,425C 539.519,427.64 547.352,432.473 554,439.5C 558.297,448.162 556.797,455.662 549.5,462C 495.5,496.667 441.5,531.333 387.5,566C 378.103,569 369.436,567.667 361.5,562C 309.663,528.916 257.997,495.583 206.5,462C 200.833,456.681 198.999,450.181 201,442.5C 202.793,439.705 204.96,437.205 207.5,435C 212.727,431.228 218.061,427.728 223.5,424.5 Z"/></g>
<g><path style="opacity:1" fill="#65a2e3" d="M 223.5,349.5 C 269.536,378.691 315.203,408.524 360.5,439C 371.58,447.23 382.913,447.563 394.5,440C 439.742,409.461 485.242,379.294 531,349.5C 538.083,353.29 544.917,357.457 551.5,362C 558.167,370 558.167,378 551.5,386C 497.158,420.836 443.158,456.169 389.5,492C 380.076,497.091 371.076,496.424 362.5,490C 310.375,454.547 257.708,419.881 204.5,386C 196.863,375.747 198.197,366.747 208.5,359C 213.564,355.809 218.564,352.642 223.5,349.5 Z"/></g>
<g><path style="opacity:1" fill="#65a2e3" d="M 374.5,179.5 C 380.109,179.402 385.442,180.569 390.5,183C 442.958,218.786 495.958,253.786 549.5,288C 557.135,296.023 557.468,304.356 550.5,313C 497.329,347.418 444.329,382.085 391.5,417C 380.729,423.423 370.396,422.757 360.5,415C 309.437,380.94 258.104,347.273 206.5,314C 198.561,305.303 198.561,296.636 206.5,288C 258.68,254.746 310.347,220.746 361.5,186C 365.647,183.26 369.98,181.093 374.5,179.5 Z"/></g>
</svg>
